<svg width="28" height="28" viewBox="0 0 28 28" fill="none" xmlns="http://www.w3.org/2000/svg">
<path d="M0 3H28V11C28 18.732 21.732 25 14 25V25C6.26801 25 0 18.732 0 11V3Z" fill="#0E110E"/>
<path fill-rule="evenodd" clip-rule="evenodd" d="M2 11C2 17.6274 7.37258 23 14 23C20.6274 23 26 17.6274 26 11V5L20 5V11C20 14.3137 17.3137 17 14 17C10.6863 17 8 14.3137 8 11V9L6 9L6 11C6 15.4183 9.58172 19 14 19C18.4183 19 22 15.4183 22 11V7H24V11C24 16.5228 19.5228 21 14 21C8.47715 21 4 16.5228 4 11L4 7L16 7V11C16 12.1046 15.1046 13 14 13C12.8954 13 12 12.1046 12 11V9H10V11C10 13.2091 11.7909 15 14 15C16.2091 15 18 13.2091 18 11L18 5L2 5L2 11Z" fill="#F0FFF0"/>
</svg>
