<svg xmlns="http://www.w3.org/2000/svg" width="40" height="40" fill="none" viewBox="0 0 40 40"><rect width="40" height="40" fill="#0F120F" rx="8"/><g clip-path="url(#a)"><path fill="#F0FFF0" fill-rule="evenodd" d="M8 17c0 6.627 5.373 12 12 12s12-5.373 12-12v-6h-6v6a6 6 0 0 1-12 0v-2h-2v2a8 8 0 1 0 16 0v-4h2v4c0 5.523-4.477 10-10 10s-10-4.477-10-10v-4h12v4a2 2 0 1 1-4 0v-2h-2v2a4 4 0 0 0 8 0v-6H8z" clip-rule="evenodd"/></g><defs><clipPath id="a"><path fill="#fff" d="M8 8h24v24H8z"/></clipPath></defs></svg>